<?xml version="1.0" encoding="utf-8"?>
<!-- Generator: Adobe Illustrator 13.0.0, SVG Export Plug-In . SVG Version: 6.00 Build 14948)  -->
<!DOCTYPE svg PUBLIC "-//W3C//DTD SVG 1.1//EN" "http://www.w3.org/Graphics/SVG/1.1/DTD/svg11.dtd">
<svg version="1.1" id="Layer_1" xmlns="http://www.w3.org/2000/svg" xmlns:xlink="http://www.w3.org/1999/xlink" x="0px" y="0px"
	 width="128px" height="128px" viewBox="0 0 128 128" enable-background="new 0 0 128 128" xml:space="preserve">
<g>
	<radialGradient id="SVGID_1_" cx="64.4551" cy="53.4683" r="12.8731" gradientUnits="userSpaceOnUse">
		<stop  offset="0" style="stop-color:#FAFAFA"/>
		<stop  offset="0.3109" style="stop-color:#F4F4F4"/>
		<stop  offset="0.7262" style="stop-color:#E3E3E3"/>
		<stop  offset="1" style="stop-color:#D4D4D4"/>
	</radialGradient>
	<path fill="url(#SVGID_1_)" stroke="#B3B3B3" d="M47.134,58.927c0,0,9.316-11.062,16.885-11.062s17.757,11.208,17.757,11.208
		L47.134,58.927z"/>
	<g>
		<linearGradient id="SVGID_2_" gradientUnits="userSpaceOnUse" x1="63.9995" y1="54.8857" x2="63.9995" y2="125.2124">
			<stop  offset="0" style="stop-color:#FF9D00"/>
			<stop  offset="1" style="stop-color:#FF1F00"/>
		</linearGradient>
		<path fill="url(#SVGID_2_)" d="M94.411,114.442c0,5.947-4.824,10.77-10.771,10.77H44.357c-5.947,0-10.77-4.822-10.77-10.77V65.657
			c0-5.95,4.822-10.771,10.77-10.771h39.283c5.946,0,10.771,4.821,10.771,10.771V114.442z"/>
		<path opacity="0.5" fill="#FFFFFF" d="M82.751,57.001H45.246c-5.678,0-10.283,4.604-10.283,10.284v0.391h0.839
			c1.576-3.656,5.21-6.217,9.444-6.217h37.505c4.235,0,7.867,2.561,9.445,6.217h0.838v-0.391
			C93.034,61.605,88.431,57.001,82.751,57.001z"/>
		<linearGradient id="SVGID_3_" gradientUnits="userSpaceOnUse" x1="33.5879" y1="105.373" x2="94.4111" y2="105.373">
			<stop  offset="0" style="stop-color:#C51015"/>
			<stop  offset="1" style="stop-color:#E20A16"/>
		</linearGradient>
		<path opacity="0.25" fill="url(#SVGID_3_)" d="M53.732,97.24c-7.188,0-14.003-0.836-20.145-2.33v19.532
			c0,5.947,4.822,10.77,10.77,10.77h39.283c5.946,0,10.771-4.822,10.771-10.77V85.533C85.69,92.585,70.729,97.24,53.732,97.24z"/>
		<linearGradient id="SVGID_4_" gradientUnits="userSpaceOnUse" x1="33.5889" y1="118.3691" x2="94.4111" y2="118.3691">
			<stop  offset="0" style="stop-color:#C51015"/>
			<stop  offset="1" style="stop-color:#E20A16"/>
		</linearGradient>
		<path fill="url(#SVGID_4_)" d="M44.358,125.212h39.282c5.948,0,10.771-4.822,10.771-10.77v-2.916
			c0,5.949-4.822,10.773-10.771,10.773H44.358c-5.948,0-10.77-4.824-10.77-10.773v2.916C33.589,120.39,38.41,125.212,44.358,125.212
			z"/>
	</g>
	<g>
		<g>
			
				<linearGradient id="SVGID_5_" gradientUnits="userSpaceOnUse" x1="-362.8862" y1="838.5596" x2="-362.8862" y2="819.4321" gradientTransform="matrix(1 0 0 1 412.6201 -813.9922)">
				<stop  offset="0" style="stop-color:#EC008C"/>
				<stop  offset="1" style="stop-color:#C40075"/>
			</linearGradient>
			<path fill="url(#SVGID_5_)" d="M59.441,19.441c0,0-1.491-14.075-18.73-16.652c0,0-6.133,23.989,8.453,26.17
				C63.751,31.139,59.441,19.441,59.441,19.441z"/>
			
				<linearGradient id="SVGID_6_" gradientUnits="userSpaceOnUse" x1="-334.2046" y1="838.5596" x2="-334.2046" y2="819.4321" gradientTransform="matrix(1 0 0 1 412.6201 -813.9922)">
				<stop  offset="0" style="stop-color:#EC008C"/>
				<stop  offset="1" style="stop-color:#C40075"/>
			</linearGradient>
			<path fill="url(#SVGID_6_)" d="M68.708,19.441c0,0,1.491-14.075,18.729-16.652c0,0,6.134,23.989-8.453,26.17
				C64.397,31.139,68.708,19.441,68.708,19.441z"/>
			
				<radialGradient id="SVGID_7_" cx="-348.6211" cy="842.7539" r="24.8947" gradientTransform="matrix(1 0 0 1 412.6201 -813.9922)" gradientUnits="userSpaceOnUse">
				<stop  offset="0" style="stop-color:#FAFAFA"/>
				<stop  offset="0.3109" style="stop-color:#F4F4F4"/>
				<stop  offset="0.7262" style="stop-color:#E3E3E3"/>
				<stop  offset="1" style="stop-color:#D4D4D4"/>
			</radialGradient>
			<path fill="url(#SVGID_7_)" stroke="#B3B3B3" d="M63.998,52.354c12.238,0,22.602-8.046,26.134-19.153
				C86.6,22.092,76.236,5.171,63.998,5.171c-12.236,0-22.601,16.921-26.131,28.029C41.397,44.308,51.762,52.354,63.998,52.354z"/>
			<g>
				<g>
					<g>
						<line fill="none" x1="55.045" y1="43.067" x2="41.002" y2="53.985"/>
						<linearGradient id="SVGID_8_" gradientUnits="userSpaceOnUse" x1="40.6504" y1="48.5264" x2="55.397" y2="48.5264">
							<stop  offset="0" style="stop-color:#EC008C"/>
							<stop  offset="1" style="stop-color:#C4008C"/>
						</linearGradient>
						<path fill="url(#SVGID_8_)" d="M54.854,42.714L40.811,53.633c-0.162,0.128-0.21,0.386-0.103,0.583
							c0.105,0.193,0.322,0.249,0.484,0.121l14.044-10.916c0.163-0.127,0.21-0.389,0.104-0.584
							C55.235,42.644,55.018,42.588,54.854,42.714z"/>
					</g>
					<g>
						<line fill="none" x1="58.207" y1="43.487" x2="44.162" y2="54.407"/>
						<linearGradient id="SVGID_9_" gradientUnits="userSpaceOnUse" x1="43.8096" y1="48.9468" x2="58.5566" y2="48.9468">
							<stop  offset="0" style="stop-color:#EC008C"/>
							<stop  offset="1" style="stop-color:#C4008C"/>
						</linearGradient>
						<path fill="url(#SVGID_9_)" d="M58.015,43.136L43.969,54.052c-0.163,0.127-0.208,0.387-0.102,0.583
							c0.104,0.195,0.323,0.251,0.485,0.126l14.044-10.923c0.162-0.125,0.209-0.386,0.104-0.583
							C58.393,43.062,58.178,43.008,58.015,43.136z"/>
					</g>
				</g>
				<g>
					<g>
						<line fill="none" x1="72.952" y1="43.067" x2="86.995" y2="53.985"/>
						<linearGradient id="SVGID_10_" gradientUnits="userSpaceOnUse" x1="72.6006" y1="48.5264" x2="87.3467" y2="48.5264">
							<stop  offset="0" style="stop-color:#EC008C"/>
							<stop  offset="1" style="stop-color:#C4008C"/>
						</linearGradient>
						<path fill="url(#SVGID_10_)" d="M73.143,42.714l14.044,10.919c0.163,0.128,0.209,0.386,0.104,0.583
							c-0.104,0.193-0.322,0.249-0.485,0.121L72.761,43.421c-0.162-0.127-0.209-0.389-0.104-0.584
							C72.765,42.644,72.981,42.588,73.143,42.714z"/>
					</g>
					<g>
						<line fill="none" x1="69.792" y1="43.487" x2="83.836" y2="54.407"/>
						<linearGradient id="SVGID_11_" gradientUnits="userSpaceOnUse" x1="69.4404" y1="48.9468" x2="84.1865" y2="48.9468">
							<stop  offset="0" style="stop-color:#EC008C"/>
							<stop  offset="1" style="stop-color:#C4008C"/>
						</linearGradient>
						<path fill="url(#SVGID_11_)" d="M69.982,43.136l14.044,10.916c0.162,0.127,0.209,0.387,0.104,0.583
							c-0.107,0.194-0.324,0.251-0.484,0.126L69.601,43.838c-0.162-0.125-0.209-0.386-0.104-0.583
							C69.604,43.062,69.821,43.008,69.982,43.136z"/>
					</g>
				</g>
			</g>
			<path fill="#FFFFFF" d="M49.347,29.79c0,0,9.722-2.59,7.561,7.776C56.907,37.566,47.836,39.511,49.347,29.79z"/>
			<path fill="#FFFFFF" d="M78.651,29.79c0,0-9.722-2.59-7.561,7.776C71.091,37.566,80.161,39.511,78.651,29.79z"/>
			<line fill="#595959" stroke="#4D4D4D" x1="64" y1="44.211" x2="64" y2="48.26"/>
			
				<linearGradient id="SVGID_12_" gradientUnits="userSpaceOnUse" x1="-358.5225" y1="827.4189" x2="-351.4062" y2="827.4189" gradientTransform="matrix(1 0 0 1 412.6201 -813.9922)">
				<stop  offset="0" style="stop-color:#9A9A9A"/>
				<stop  offset="1" style="stop-color:#DEDEDE"/>
			</linearGradient>
			<path fill="url(#SVGID_12_)" d="M56.232,7.653c-0.8,0.444-2.135,1.429-2.135,1.429l7.116,11.308L58.638,6.466
				C58.638,6.466,57.09,7.176,56.232,7.653z"/>
			
				<linearGradient id="SVGID_13_" gradientUnits="userSpaceOnUse" x1="-352.6133" y1="826.3008" x2="-347.9238" y2="826.3008" gradientTransform="matrix(1 0 0 1 412.6201 -813.9922)">
				<stop  offset="0" style="stop-color:#9A9A9A"/>
				<stop  offset="1" style="stop-color:#DEDEDE"/>
			</linearGradient>
			<path fill="url(#SVGID_13_)" d="M62.694,5.442c-1.41,0.151-2.688,0.571-2.688,0.571l3.544,13.235l1.146-13.827
				C64.696,5.422,64.105,5.289,62.694,5.442z"/>
			
				<linearGradient id="SVGID_14_" gradientUnits="userSpaceOnUse" x1="-360.6577" y1="846.6543" x2="-355.7495" y2="846.6543" gradientTransform="matrix(1 0 0 1 412.6201 -813.9922)">
				<stop  offset="0" style="stop-color:#5F5D5C"/>
				<stop  offset="1" style="stop-color:#181500"/>
			</linearGradient>
			<circle fill="url(#SVGID_14_)" cx="54.417" cy="32.662" r="2.455"/>
			
				<linearGradient id="SVGID_15_" gradientUnits="userSpaceOnUse" x1="-341.5264" y1="846.6543" x2="-336.6162" y2="846.6543" gradientTransform="matrix(1 0 0 1 412.6201 -813.9922)">
				<stop  offset="0" style="stop-color:#5F5D5C"/>
				<stop  offset="1" style="stop-color:#181500"/>
			</linearGradient>
			<circle fill="url(#SVGID_15_)" cx="73.548" cy="32.662" r="2.455"/>
			<path fill="#595959" d="M49.167,29.113l-0.443,0.117l-0.07,0.45c-0.5,3.209,0.052,5.593,1.634,7.088
				c2.502,2.364,6.594,1.521,6.766,1.484l0.449-0.095l0.091-0.449c0.71-3.402,0.265-5.892-1.321-7.395
				C53.747,27.927,49.354,29.063,49.167,29.113z M55.31,31.339c0.804,0.765,1.209,1.931,1.209,3.486
				c0,0.637-0.084,1.357-0.222,2.125c-1.025,0.127-3.514,0.252-5.05-1.206c-0.91-0.863-1.369-2.174-1.369-3.911
				c0-0.448,0.062-0.953,0.124-1.46C51.063,30.179,53.755,29.864,55.31,31.339z"/>
			<path fill="#595959" d="M71.726,30.314c-1.588,1.503-2.032,3.99-1.321,7.396l0.092,0.447l0.448,0.095
				c0.172,0.037,4.263,0.882,6.766-1.482c1.584-1.495,2.133-3.881,1.633-7.088l-0.069-0.451l-0.443-0.118
				C78.646,29.063,74.251,27.927,71.726,30.314z M71.478,34.823c0-1.552,0.405-2.721,1.211-3.486
				c1.555-1.475,4.247-1.158,5.308-0.966c0.062,0.507,0.122,1.014,0.122,1.461c0,1.738-0.459,3.049-1.367,3.911
				c-1.537,1.455-4.024,1.334-5.051,1.206C71.563,36.183,71.478,35.462,71.478,34.823z"/>
			<g>
				<path fill="#595959" d="M62.733,45.606c0.696,0.832,1.835,0.832,2.529,0l3.148-3.766c0.123-0.147,0.218-0.287,0.282-0.422
					c-1.409-0.424-3.002-0.664-4.692-0.664s-3.287,0.24-4.693,0.664c0.065,0.135,0.156,0.275,0.28,0.422L62.733,45.606z"/>
			</g>
		</g>
		<path opacity="0.5" fill="#FFFFFF" d="M41.233,3.723c0,0,4.448,1.055,6.001,1.766c1.552,0.711,5.272,3.038,5.272,3.038
			l-0.551,0.423c0,0-3.404-2.29-4.893-2.937S41.233,3.723,41.233,3.723z"/>
		<path opacity="0.5" fill="#FFFFFF" d="M86.786,3.723c0,0-4.448,1.055-6,1.766c-1.554,0.711-5.273,3.038-5.273,3.038l0.551,0.423
			c0,0,3.404-2.29,4.893-2.937S86.786,3.723,86.786,3.723z"/>
	</g>
	<radialGradient id="SVGID_16_" cx="53.2476" cy="56.3794" r="3.428" gradientUnits="userSpaceOnUse">
		<stop  offset="0" style="stop-color:#FAFAFA"/>
		<stop  offset="0.3109" style="stop-color:#F4F4F4"/>
		<stop  offset="0.7262" style="stop-color:#E3E3E3"/>
		<stop  offset="1" style="stop-color:#D4D4D4"/>
	</radialGradient>
	<path fill="url(#SVGID_16_)" stroke="#B3B3B3" d="M57.178,55.651c0,1.166-1.76,3.566-3.93,3.566c-2.171,0-3.93-2.4-3.93-3.566
		c0-1.165,1.76-2.11,3.931-2.11C55.418,53.541,57.178,54.486,57.178,55.651z"/>
	<radialGradient id="SVGID_17_" cx="74.6445" cy="56.3794" r="3.4283" gradientUnits="userSpaceOnUse">
		<stop  offset="0" style="stop-color:#FAFAFA"/>
		<stop  offset="0.3109" style="stop-color:#F4F4F4"/>
		<stop  offset="0.7262" style="stop-color:#E3E3E3"/>
		<stop  offset="1" style="stop-color:#D4D4D4"/>
	</radialGradient>
	<path fill="url(#SVGID_17_)" stroke="#B3B3B3" d="M78.575,55.651c0,1.166-1.761,3.566-3.931,3.566c-2.171,0-3.931-2.4-3.931-3.566
		c0-1.165,1.76-2.11,3.932-2.11C76.815,53.541,78.575,54.486,78.575,55.651z"/>
</g>
</svg>
