<?xml version="1.0" encoding="UTF-8" standalone="no"?>
<!-- Created with Inkscape (http://www.inkscape.org/) -->
<svg
   xmlns:i="http://ns.adobe.com/AdobeIllustrator/10.0/"
   xmlns:dc="http://purl.org/dc/elements/1.1/"
   xmlns:cc="http://creativecommons.org/ns#"
   xmlns:rdf="http://www.w3.org/1999/02/22-rdf-syntax-ns#"
   xmlns:svg="http://www.w3.org/2000/svg"
   xmlns="http://www.w3.org/2000/svg"
   xmlns:sodipodi="http://sodipodi.sourceforge.net/DTD/sodipodi-0.dtd"
   xmlns:inkscape="http://www.inkscape.org/namespaces/inkscape"
   id="svg2533"
   sodipodi:version="0.32"
   inkscape:version="0.46"
   width="64"
   height="45"
   version="1.0"
   sodipodi:docname="bosluksuz.svg"
   inkscape:output_extension="org.inkscape.output.svg.inkscape">
  <metadata
     id="metadata2538">
    <rdf:RDF>
      <cc:Work
         rdf:about="">
        <dc:format>image/svg+xml</dc:format>
        <dc:type
           rdf:resource="http://purl.org/dc/dcmitype/StillImage" />
      </cc:Work>
    </rdf:RDF>
  </metadata>
  <defs
     id="defs2536">
    <inkscape:perspective
       sodipodi:type="inkscape:persp3d"
       inkscape:vp_x="0 : 526.18109 : 1"
       inkscape:vp_y="0 : 1000 : 0"
       inkscape:vp_z="744.09448 : 526.18109 : 1"
       inkscape:persp3d-origin="372.04724 : 350.78739 : 1"
       id="perspective2540" />
  </defs>
  <sodipodi:namedview
     inkscape:window-height="773"
     inkscape:window-width="1270"
     inkscape:pageshadow="2"
     inkscape:pageopacity="0.0"
     guidetolerance="10.0"
     gridtolerance="10.0"
     objecttolerance="10.0"
     borderopacity="1.0"
     bordercolor="#666666"
     pagecolor="#ffffff"
     id="base"
     showgrid="false"
     inkscape:zoom="8.6358101"
     inkscape:cx="36.862613"
     inkscape:cy="28.313059"
     inkscape:window-x="0"
     inkscape:window-y="0"
     inkscape:current-layer="svg2533" />
  <g
     id="g6116"
     transform="matrix(0.5595253,0,0,0.5661573,-199.22146,-398.07993)">
    <g
       id="g6095">
      <path
         i:knockout="Off"
         d="M 458.19413,712.70222 C 457.76356,711.41806 456.41044,709.11381 455.19524,707.58073 C 453.97668,706.04512 451.99368,704.22864 450.79026,703.54241 C 449.58432,702.8545 444.07599,704.35983 441.28818,705.63473 L 439.25473,706.56316 C 436.46776,707.83891 434.14838,708.90021 434.10212,708.92291 C 434.05587,708.9473 433.7279,708.92291 433.47476,708.81863 C 433.21827,708.70846 430.11931,707.94487 427.13304,707.24771 L 421.7887,705.99887 C 418.80074,705.30087 415.35951,704.63567 414.1359,704.52045 C 412.91229,704.4044 407.69578,705.27816 404.70951,705.96355 L 398.98673,707.27798 C 395.99878,707.96253 393.34805,708.58653 393.0966,708.66221 C 392.84347,708.73622 392.13874,708.99355 392.09165,708.96748 C 392.04372,708.94057 389.63603,707.83806 386.84907,706.56316 L 384.81729,705.63473 C 382.02865,704.35899 378.58909,703.23293 377.17122,703.12865 C 375.75335,703.02437 372.12711,706.04512 370.91023,707.58073 C 369.68999,709.11381 368.3394,711.41974 367.90798,712.70306 C 367.47404,713.98637 369.82118,719.04478 371.53759,721.58534 L 375.04442,726.78672 C 376.75747,729.32728 377.70187,732.26393 377.13843,733.31094 C 376.57666,734.36214 375.8097,736.22909 375.43211,737.46195 C 375.05283,738.69649 375.48929,744.1081 376.00228,747.13054 L 377.09638,753.58159 C 377.60853,756.60402 378.56975,760.08731 379.23327,761.32269 C 379.8968,762.56059 385.15452,764.74374 388.1307,765.48042 L 389.46111,765.81092 C 392.43561,766.54845 396.33685,769.18656 398.12895,771.67246 L 400.53327,774.99848 C 402.32369,777.48522 404.66242,780.21331 405.72876,781.06437 C 406.79006,781.91375 411.2825,782.60923 413.05274,782.60923 C 414.82633,782.60923 417.34503,782.30984 418.65694,781.94402 C 419.96968,781.57904 423.7801,777.48522 425.5722,774.99848 L 427.93616,771.72376 C 429.72994,769.24038 433.62782,766.59555 436.60063,765.84961 L 437.98655,765.50061 C 440.95937,764.75383 444.35771,763.52434 445.53843,762.76831 C 446.71914,762.01228 448.49695,756.60402 449.01078,753.58159 L 450.10319,747.13222 C 450.61366,744.1081 451.00471,740.58277 450.97191,739.29021 C 450.93911,738.00185 449.52797,734.36298 448.96621,733.31178 C 448.40444,732.26478 449.34885,729.32896 451.06021,726.78756 L 454.56704,721.58618 C 456.28009,719.04478 458.62807,713.98637 458.19413,712.70222 z M 374.851,718.60664 C 373.32548,716.34696 372.01442,714.32949 371.93369,714.12597 C 371.93369,714.12597 371.93369,714.12597 371.93369,713.89218 C 371.93369,713.59869 371.93369,713.59869 371.93369,713.59869 C 372.05226,713.33126 373.14552,711.85957 374.36324,710.32396 C 375.5818,708.79172 376.77429,707.44281 377.01228,707.32676 C 377.25027,707.21239 380.19198,708.37544 382.97978,709.64783 L 383.4154,709.84798 C 386.20236,711.12204 388.44354,712.22875 388.39392,712.3078 C 388.34262,712.38769 387.04081,714.80799 385.59518,717.5117 L 383.14461,722.09161 C 381.69731,724.79447 376.37567,720.868 374.851,718.60664 z M 446.61907,739.53745 C 446.65355,740.28423 446.25913,743.36974 445.74867,746.39217 L 444.65289,752.84406 C 444.14242,755.86481 443.53945,758.64757 443.30902,759.02769 C 443.08533,759.40528 440.50356,760.31689 438.2893,760.87361 C 436.07335,761.43033 434.33423,761.52199 434.41917,761.08049 C 434.50495,760.63561 433.21995,757.52404 431.56409,755.11131 C 429.90486,752.7011 428.55006,750.79715 428.55175,750.88125 C 428.55511,750.96619 428.9327,752.94498 429.35655,755.09028 C 429.77872,757.23895 430.08735,759.53143 430.0411,760.1857 C 429.99484,760.84081 429.24639,762.35876 429.00334,762.69935 C 428.75694,763.0391 427.65443,764.56797 426.55109,766.09517 C 425.44606,767.6232 423.23852,770.68853 421.63648,772.90531 C 420.03865,775.12042 418.34999,777.21947 417.88325,777.56427 C 417.41819,777.90906 414.82297,778.19331 413.04937,778.19331 C 411.27914,778.19331 409.37687,778.04951 408.82352,777.87375 C 408.27352,777.69883 406.0458,775.1036 404.43283,772.86579 C 402.81649,770.62798 400.5955,767.55088 399.4972,766.02705 C 398.3989,764.50322 397.31069,762.99453 397.07438,762.66991 C 396.84311,762.34698 396.46047,761.57834 396.22836,760.96528 C 395.9971,760.35053 396.32171,757.23895 396.74219,755.09112 C 397.16604,752.94582 397.51925,751.12092 397.53186,751.0343 C 397.54363,750.94853 396.19472,752.7011 394.53718,755.11299 C 392.87796,757.52488 391.54754,759.85183 391.57698,760.28409 C 391.60473,760.71803 390.01531,761.4009 387.8044,760.85174 C 385.59182,760.30343 383.48772,759.64496 383.12779,759.39267 C 382.76954,759.13954 381.95464,755.8665 381.44249,752.84575 L 380.3484,746.39385 C 379.83793,743.37058 379.4452,740.28507 379.47968,739.53913 C 379.51247,738.78815 380.33578,736.68321 380.74113,735.92887 C 381.14479,735.17368 382.65937,732.34214 384.10668,729.64012 L 389.48297,719.59394 C 390.93027,716.89275 392.47597,714.30762 392.92084,713.84761 C 393.36571,713.38844 394.58595,712.81658 394.6423,712.80397 C 394.69949,712.79136 397.18791,712.2195 400.17586,711.53495 L 405.69512,710.26678 C 408.68139,709.58055 411.82661,708.96328 412.68608,708.89432 C 413.5447,708.8262 417.79242,709.59989 420.77869,710.29789 L 425.92625,711.49963 C 428.91084,712.19763 431.39758,712.77958 431.4514,712.79304 C 431.50522,712.80481 432.0098,713.07056 432.56988,713.38087 C 433.13165,713.69203 435.16679,716.89275 436.61409,719.59394 L 441.99039,729.64012 C 443.43601,732.34214 444.95311,735.17284 445.35594,735.92887 C 445.76381,736.68237 446.58795,738.78647 446.61907,739.53745 z M 454.16842,714.12597 C 454.08769,714.32949 452.7741,716.3478 451.25111,718.60664 C 449.72812,720.86716 444.4048,724.79363 442.96002,722.09161 L 440.50777,717.5117 C 439.05878,714.80799 437.84022,712.53234 437.79565,712.45245 C 437.74772,712.3734 439.89975,711.12204 442.68671,709.84798 L 443.12065,709.64783 C 445.90761,708.37544 448.44733,707.32676 448.76437,707.31751 C 449.08142,707.31078 450.52031,708.79172 451.73887,710.32396 C 452.95407,711.85873 454.04985,713.33042 454.16842,713.59869 C 454.16842,713.59869 454.16842,713.59869 454.16842,713.89218 C 454.16842,714.12597 454.16842,714.12597 454.16842,714.12597 z"
         id="path505"
         style="fill:#d1d6e0;fill-opacity:1" />
      <path
         i:knockout="Off"
         d="M 405.26202,755.25764 C 404.60523,753.94152 405.26875,752.8592 406.74549,752.8592 L 419.35662,752.8592 C 420.82999,752.8592 421.49688,753.94068 420.84009,755.25764 L 414.24859,762.75065 C 413.59011,764.06844 412.51368,764.06844 411.85352,762.75065 L 405.26202,755.25764 z"
         id="path507"
         style="fill:#d1d6e0;fill-opacity:1" />
      <path
         i:knockout="Off"
         d="M 413.05106,771.32766 C 413.05274,771.32766 413.94164,772.14256 415.03069,773.13658 L 419.31289,777.05044 C 420.40531,778.04362 421.59443,778.1437 421.95857,777.26825 C 422.32271,776.3928 421.62807,774.99932 420.40951,774.16761 L 416.35269,771.40167 C 415.13413,770.57079 414.14011,769.86354 414.14515,769.83074 C 414.1502,769.79963 414.15525,768.50201 414.15525,767.02696 L 414.15525,759.47256 C 414.15525,757.99666 413.93323,756.29371 413.66076,755.68737 C 413.66076,755.68737 413.66076,755.68737 413.05106,755.68737 C 412.44136,755.68737 412.44136,755.68737 412.44136,755.68737 C 412.17056,756.29371 411.94687,757.99666 411.94687,759.47256 L 411.94687,767.02696 C 411.94687,768.50201 411.95023,769.73656 411.95191,769.77103 C 411.95528,769.80299 410.96798,770.57079 409.74942,771.40167 L 405.6926,774.16761 C 404.47572,774.99848 403.77604,776.3928 404.14354,777.26825 C 404.5102,778.1437 405.69764,778.04362 406.78838,777.05044 L 411.07226,773.13658 C 412.16131,772.14256 413.05106,771.32766 413.05106,771.32766 z"
         id="path509"
         style="fill:#d1d6e0;fill-opacity:1" />
      <g
         id="g511"
         transform="matrix(0.8409664,0,0,0.8409664,47.027171,137.19781)"
         style="fill:#d1d6e0;fill-opacity:1">
        <path
           i:knockout="Off"
           d="M 407.346,711.372 C 405.461,711.426 405.448,711.687 407.311,711.954 L 422.952,714.187 C 424.815,714.454 426.198,716.205 426.022,718.077 L 424.026,725.057 C 423.858,726.929 424.442,728.516 425.335,728.58 C 426.226,728.645 426.96,728.637 426.966,728.561 C 426.97,728.486 427.042,726.886 427.122,725.005 L 428.755,718.454 C 428.837,716.573 428.943,714.073 428.993,712.897 C 429.048,711.721 428.55,710.773 427.891,710.793 C 427.232,710.813 425.155,710.869 423.272,710.923 L 407.346,711.372 z"
           id="path513"
           style="fill:#d1d6e0;fill-opacity:1" />
        <path
           i:knockout="Off"
           d="M 447.213,710.925 C 445.33,710.871 443.252,710.815 442.598,710.795 C 441.936,710.775 441.438,711.724 441.489,712.899 C 441.54,714.074 441.649,716.575 441.731,718.456 L 443.362,725.007 C 443.444,726.888 443.514,728.487 443.524,728.563 C 443.526,728.638 444.26,728.647 445.151,728.582 C 446.044,728.518 446.63,726.931 446.456,725.059 L 444.462,718.079 C 444.29,716.207 445.673,714.456 447.534,714.189 L 463.173,711.956 C 465.036,711.689 465.025,711.428 463.14,711.374 L 447.213,710.925 z"
           id="path515"
           style="fill:#d1d6e0;fill-opacity:1" />
      </g>
      <g
         id="g517"
         transform="matrix(0.8409664,0,0,0.8409664,47.027171,137.19781)"
         style="fill:#d1d6e0;fill-opacity:1">
        <circle
           i:knockout="Off"
           cx="419.233"
           cy="713.73401"
           r="2.1689999"
           id="circle519"
           sodipodi:cx="419.233"
           sodipodi:cy="713.73401"
           sodipodi:rx="2.1689999"
           sodipodi:ry="2.1689999"
           style="fill:#d1d6e0;fill-opacity:1" />
        <circle
           i:knockout="Off"
           cx="451.25201"
           cy="713.73401"
           r="2.1719999"
           id="circle521"
           sodipodi:cx="451.25201"
           sodipodi:cy="713.73401"
           sodipodi:rx="2.1719999"
           sodipodi:ry="2.1719999"
           style="fill:#d1d6e0;fill-opacity:1" />
      </g>
      <g
         id="g577"
         transform="matrix(0.8409664,0,0,0.8409664,47.027171,137.19781)"
         style="fill:#d1d6e0;fill-opacity:1">
        <g
           id="g579"
           style="fill:#d1d6e0;fill-opacity:1">
          <circle
             i:knockout="Off"
             cx="414.70499"
             cy="690.20203"
             r="3.506"
             id="circle581"
             sodipodi:cx="414.70499"
             sodipodi:cy="690.20203"
             sodipodi:rx="3.506"
             sodipodi:ry="3.506"
             style="fill:#d1d6e0;fill-opacity:1" />
          <circle
             i:knockout="Off"
             cx="410.56201"
             cy="698.62097"
             r="2.921"
             id="circle583"
             sodipodi:cx="410.56201"
             sodipodi:cy="698.62097"
             sodipodi:rx="2.921"
             sodipodi:ry="2.921"
             style="fill:#d1d6e0;fill-opacity:1" />
          <path
             i:knockout="Off"
             d="M 426.793,689.1 C 426.205,690.946 424.982,692.205 424.059,691.911 C 423.137,691.618 422.864,689.885 423.454,688.039 C 424.038,686.194 425.263,684.935 426.184,685.229 C 427.105,685.521 427.379,687.257 426.793,689.1 z"
             id="path585"
             style="fill:#d1d6e0;fill-opacity:1" />
          <path
             i:knockout="Off"
             d="M 422.381,699.521 C 422.381,700.491 421.467,701.275 420.334,701.275 C 419.205,701.275 418.289,700.491 418.289,699.521 C 418.289,698.552 419.205,697.769 420.334,697.769 C 421.467,697.77 422.381,698.553 422.381,699.521 z"
             id="path587"
             style="fill:#d1d6e0;fill-opacity:1" />
        </g>
        <g
           id="g589"
           style="fill:#d1d6e0;fill-opacity:1">
          <path
             i:knockout="Off"
             d="M 465.488,732.979 C 464.767,734.423 465.353,736.175 466.799,736.896 C 468.242,737.618 469.996,737.031 470.717,735.587 C 471.438,734.142 470.848,732.386 469.406,731.669 C 467.963,730.946 466.209,731.534 465.488,732.979 z"
             id="path591"
             style="fill:#d1d6e0;fill-opacity:1" />
          <path
             i:knockout="Off"
             d="M 466.172,725.515 C 465.873,727.429 466.406,729.102 467.361,729.251 C 468.32,729.399 469.336,727.971 469.636,726.059 C 469.935,724.145 469.404,722.473 468.443,722.325 C 467.49,722.174 466.471,723.603 466.172,725.515 z"
             id="path593"
             style="fill:#d1d6e0;fill-opacity:1" />
          <path
             i:knockout="Off"
             d="M 460.797,729.959 C 460.363,730.825 460.832,731.938 461.842,732.44 C 462.856,732.945 464.026,732.651 464.455,731.785 C 464.889,730.919 464.418,729.807 463.41,729.305 C 462.398,728.799 461.227,729.094 460.797,729.959 z"
             id="path595"
             style="fill:#d1d6e0;fill-opacity:1" />
        </g>
      </g>
    </g>
    <path
       sodipodi:nodetypes="csscscscsc"
       id="path4768"
       d="M 411.06131,759.00426 C 411.06131,759.00426 410.98485,758.93957 410.98376,758.96272 C 410.89736,760.80075 405.69748,770.04065 389.33553,768.31028 C 359.47758,765.15264 356.20289,759.87658 356.20289,759.87658 C 356.20289,759.87658 375.59613,777.7992 394.11903,777.2342 C 409.00314,776.77651 411.33845,770.44205 411.33845,770.44205 C 411.33845,770.44205 423.49291,778.93342 440.23029,776.89276 C 456.96768,774.85209 470.29038,756.5605 470.29038,756.5605 C 470.29038,756.5605 450.13637,771.87745 433.0574,769.32662 C 419.0296,767.2315 411.53052,759.89755 411.06131,759.00426 z"
       style="fill:#d1d6e0;fill-opacity:1;fill-rule:evenodd;stroke:#d1d6b1;stroke-width:0.29517981px;stroke-linecap:butt;stroke-linejoin:miter;stroke-opacity:0" />
  </g>
</svg>
